<?xml version="1.0" encoding="UTF-8"?> <!-- Generator: Adobe Illustrator 24.0.1, SVG Export Plug-In . SVG Version: 6.00 Build 0) --> <svg xmlns="http://www.w3.org/2000/svg" xmlns:xlink="http://www.w3.org/1999/xlink" id="Layer_1" x="0px" y="0px" viewBox="0 0 372.4 99.6" style="enable-background:new 0 0 372.4 99.6;" xml:space="preserve"> <style type="text/css"> .st0{fill:#FFFFFF;} </style> <title>clubforce logo white-side</title> <path class="st0" d="M114.2,158.8c3.9-3.9,9.3-6,14.9-5.9c4.7-0.1,9.3,1.4,13,4.2l-4.9,5.8c-2.2-1.6-4.8-2.4-7.4-2.3 c-3.4-0.1-6.7,1.2-9,3.7c-2.3,2.4-3.6,5.6-3.5,8.9c-0.1,3.3,1.2,6.5,3.4,8.9c2.2,2.4,5.3,3.8,8.6,3.7c3.2,0.1,6.4-1,8.8-3.1l5.1,5.8 c-3.9,3.4-8.9,5.2-14,5c-5.5,0.2-10.9-2-14.9-5.9c-3.9-3.8-6-9-5.9-14.4C108.3,167.8,110.4,162.6,114.2,158.8z"></path> <path class="st0" d="M147.6,153h8.1v39.8h-8.1V153z"></path> <path class="st0" d="M162.4,162.5h8.2v15.7c-0.1,1.9,0.3,3.8,1.2,5.5c0.8,1.2,2.2,1.8,4.3,1.8c4.3,0,6.5-2.7,6.5-8.2v-14.8h8.1v30.3 h-8.1v-3.9c-2.1,2.9-5.5,4.6-9.1,4.5c-1.6,0-3.1-0.2-4.6-0.8c-1.2-0.5-2.3-1.2-3.2-2.1c-0.9-0.9-1.5-2-2-3.2 c-0.5-1.2-0.9-2.4-1.1-3.7c-0.2-1.3-0.3-2.7-0.3-4L162.4,162.5z"></path> <path class="st0" d="M198,153h8.1v13.6c1.9-2.9,5.2-4.7,8.7-4.6c3.9-0.1,7.6,1.6,10.1,4.5c2.6,3.1,4,7.1,3.9,11.2 c0.1,4.1-1.3,8.1-3.9,11.2c-2.5,3-6.2,4.7-10.1,4.5c-3.5,0.1-6.7-1.6-8.7-4.5v3.9H198V153z M208.1,183.4c1.3,1.4,3.2,2.2,5.1,2.2 c2,0.1,3.9-0.7,5.2-2.2c2.7-3.3,2.7-8.1,0-11.4c-1.4-1.4-3.3-2.2-5.2-2.2c-1.9-0.1-3.8,0.7-5.1,2.2 C205.5,175.3,205.5,180,208.1,183.4L208.1,183.4z"></path> <path class="st0" d="M235.1,169.1h-4.7v-6.5h4.8v-2.1c0-1.4,0.2-2.8,0.7-4.1c0.4-1.1,1-2,1.7-2.9c0.7-0.7,1.5-1.3,2.4-1.8 c0.8-0.4,1.6-0.8,2.5-1c0.7-0.2,1.5-0.3,2.2-0.3c1.6,0,3.2,0.2,4.8,0.6c1,0.2,1.9,0.6,2.8,1.2l0.7,0.6l-3.1,5.6 c-1.1-0.7-2.4-1.2-3.8-1.3c-1.9,0-2.8,1.2-2.8,3.6v1.7h7.5v6.5h-7.6v23.8h-8.1L235.1,169.1z"></path> <path class="st0" d="M257.3,166.5c6.4-6.1,16.5-6.1,22.8,0c6.2,5.9,6.4,15.7,0.4,21.8c-0.1,0.2-0.3,0.3-0.4,0.4 c-6.4,6.1-16.5,6.1-22.8,0c-6.2-5.9-6.4-15.7-0.4-21.8C257,166.8,257.1,166.7,257.3,166.5z M263.1,183.2c3.1,3,8.1,3,11.2,0 c3.1-3,3.1-8,0.1-11.1c0,0-0.1-0.1-0.1-0.1c-3.1-3.1-8.1-3.1-11.2,0C260,175.1,260,180.1,263.1,183.2 C263,183.2,263.1,183.2,263.1,183.2z"></path> <path class="st0" d="M290.6,162.5h8.1v5.6c0.7-1.7,1.9-3.2,3.5-4.3c2.1-1.4,4.6-2,7.1-1.9v8.8c-3.5,0-6.2,0.8-7.9,2.5 c-1.7,1.7-2.6,4.3-2.6,7.9v11.6h-8.1L290.6,162.5z"></path> <path class="st0" d="M316.9,166.5c3-3,7.1-4.6,11.4-4.6c3.9-0.1,7.7,1.2,10.8,3.7l-5,5.9c-1.6-1.2-3.6-1.8-5.6-1.7 c-2.2-0.1-4.2,0.8-5.8,2.2c-1.5,1.5-2.4,3.5-2.3,5.6c0,2.1,0.8,4.1,2.3,5.6c1.6,1.5,3.8,2.4,6,2.3c2.4,0.1,4.7-0.6,6.5-2.1l4.4,6.2 c-3.3,2.5-7.3,3.8-11.4,3.7c-4.3,0.1-8.4-1.6-11.4-4.6c-6.2-5.9-6.3-15.7-0.4-21.9c0.1-0.1,0.3-0.3,0.4-0.4L316.9,166.5z"></path> <path class="st0" d="M346.5,166.5c3-3,7-4.7,11.3-4.6c3.9,0,7.7,1.6,10.4,4.6c2.8,2.9,4.4,6.8,4.3,10.9l-0.2,3h-21.8 c1,3.9,3.8,5.8,8.3,5.8c2.9,0.1,5.8-0.6,8.3-2.1l3,6.1c-3.5,2-7.4,3.1-11.5,3.1c-4.3,0.1-8.5-1.4-11.8-4.1 c-3.2-2.8-4.8-6.6-4.8-11.5C341.9,173.5,343.5,169.5,346.5,166.5z M364.5,174.6c-0.3-1.6-1.2-3.1-2.5-4.1c-1.4-1-3-1.5-4.7-1.5 c-1.6,0-3.1,0.5-4.3,1.5c-1.3,1.1-2.3,2.5-2.7,4.1L364.5,174.6z"></path> <path class="st0" d="M86.8,133.2c0-3.2-2.6-5.9-5.9-5.9c-3.2,0-5.9,2.6-5.9,5.9c0,0,0,0,0,0v46.9L48,158.8c-2.5-2.1-6.2-1.7-8.3,0.8 c-2.1,2.5-1.7,6.2,0.8,8.3c0.1,0.1,0.1,0.1,0.2,0.2L71.2,192l-27.7,19.9l-23.8-17.1c-2.6-1.9-6.3-1.3-8.2,1.4 c-1.9,2.6-1.3,6.3,1.4,8.2l0,0L40,223.9c2,1.5,4.8,1.5,6.8,0L84.4,197c0,0,0.1-0.1,0.1-0.1c0.2-0.1,0.4-0.3,0.5-0.5 c0.1-0.1,0.3-0.3,0.4-0.4c0,0,0.1-0.1,0.1-0.1c0.2-0.2,0.3-0.5,0.5-0.8c0-0.1,0.1-0.1,0.1-0.2c0.2-0.4,0.3-0.8,0.4-1.2 c0-0.1,0-0.2,0.1-0.3c0.1-0.3,0.1-0.7,0.1-1c0-0.1,0-0.1,0-0.2L86.8,133.2z"></path> <path class="st0" d="M11.7,137.1h46c3.2-0.1,5.8-2.9,5.6-6.1c-0.1-3.1-2.6-5.5-5.6-5.6H5.9c-3.2,0-5.9,2.6-5.9,5.9c0,0,0,0,0,0v47.2 c0,3.2,2.6,5.9,5.9,5.9s5.9-2.6,5.9-5.9L11.7,137.1z"></path> <g> <g> <path class="st0" d="M109.3,38c3.8-3.8,8.6-5.7,14.4-5.7c4.8,0,9,1.4,12.6,4.1l-4.8,5.6c-2-1.5-4.4-2.2-7.2-2.2 c-3.6,0-6.5,1.2-8.8,3.5c-2.2,2.4-3.4,5.2-3.4,8.6c0,3.4,1.1,6.2,3.3,8.6c2.2,2.4,5,3.6,8.3,3.6c3.4,0,6.2-1,8.5-3l5,5.6 c-3.7,3.2-8.2,4.9-13.5,4.9c-5.8,0-10.6-1.9-14.4-5.7c-3.8-3.8-5.7-8.4-5.7-13.9C103.6,46.5,105.5,41.8,109.3,38"></path> </g> <rect x="141.6" y="32.4" class="st0" width="7.9" height="38.6"></rect> <g> <path class="st0" d="M155.9,41.6h7.9v15.2c0,2.4,0.4,4.2,1.2,5.3c0.8,1.2,2.2,1.7,4.2,1.7c4.2,0,6.3-2.7,6.3-8V41.6h7.9v29.3h-7.9 v-3.8c-2.2,2.9-5.2,4.4-8.8,4.4c-1.7,0-3.2-0.3-4.5-0.8c-1.3-0.5-2.3-1.2-3.1-2.1c-0.8-0.8-1.4-1.9-1.9-3c-0.5-1.2-0.8-2.4-1-3.6 c-0.2-1.2-0.3-2.5-0.3-3.8V41.6z"></path> <path class="st0" d="M200.2,61.8c1.3,1.4,2.9,2.1,5,2.1c2.1,0,3.8-0.7,5.1-2.1c1.3-1.4,2-3.2,2-5.5c0-2.3-0.7-4.1-2-5.5 c-1.3-1.4-3-2.1-5.1-2.1c-2,0-3.7,0.7-5,2.1c-1.3,1.4-1.9,3.2-1.9,5.5C198.2,58.5,198.9,60.4,200.2,61.8 M190.4,32.4h7.9v13.1 c2.1-3,4.9-4.5,8.4-4.5c4,0,7.3,1.5,9.8,4.4c2.5,2.9,3.8,6.5,3.8,10.8c0,4.3-1.3,7.9-3.8,10.8c-2.5,2.9-5.8,4.4-9.8,4.4 c-3.5,0-6.3-1.5-8.4-4.4v3.8h-7.9V32.4z"></path> <path class="st0" d="M226.3,48h-4.6v-6.3h4.6v-2c0-1.4,0.2-2.8,0.7-3.9c0.4-1.2,1-2.1,1.7-2.8c0.7-0.7,1.4-1.2,2.3-1.7 c0.9-0.4,1.7-0.8,2.4-0.9c0.8-0.2,1.5-0.3,2.1-0.3c1.8,0,3.3,0.2,4.6,0.6c1.3,0.4,2.2,0.8,2.7,1.2l0.7,0.6l-3,5.4 c-1.4-0.8-2.7-1.2-3.6-1.2c-1.8,0-2.8,1.2-2.8,3.5v1.6h7.3V48h-7.3v23h-7.9V48z"></path> <path class="st0" d="M253.4,61.7c1.5,1.5,3.3,2.2,5.4,2.2c2.1,0,3.9-0.7,5.4-2.2c1.5-1.5,2.3-3.3,2.3-5.4c0-2.1-0.8-3.9-2.3-5.4 c-1.5-1.5-3.3-2.2-5.4-2.2c-2.1,0-3.9,0.7-5.4,2.2c-1.5,1.5-2.3,3.3-2.3,5.4C251.1,58.4,251.9,60.2,253.4,61.7 M247.8,45.5 c3.1-3,6.8-4.5,11.1-4.5c4.3,0,8,1.5,11,4.5c3.1,3,4.6,6.6,4.6,10.8c0,4.2-1.5,7.8-4.6,10.8c-3.1,3-6.7,4.5-11,4.5 c-4.3,0-8-1.5-11.1-4.5c-3.1-3-4.6-6.6-4.6-10.8C243.2,52.1,244.7,48.5,247.8,45.5"></path> <path class="st0" d="M280,41.6h7.9v5.5c0.5-1.5,1.7-2.9,3.3-4.2c1.7-1.2,4-1.9,6.9-1.9v8.6c-3.4,0-6,0.8-7.7,2.4 c-1.7,1.6-2.5,4.2-2.5,7.7v11.3H280V41.6z"></path> <path class="st0" d="M305.5,45.5c3.1-3,6.8-4.5,11.1-4.5c4,0,7.5,1.2,10.4,3.6l-4.8,5.7c-1.2-1.1-3.1-1.6-5.4-1.6 c-2.2,0-4.1,0.7-5.6,2.2c-1.5,1.4-2.3,3.3-2.3,5.4c0,2.1,0.7,4,2.2,5.4c1.5,1.5,3.4,2.2,5.9,2.2c2.7,0,4.8-0.7,6.3-2l4.3,6 c-3.1,2.4-6.8,3.6-11,3.6c-4.3,0-8-1.5-11.1-4.5c-3-3-4.6-6.6-4.6-10.8C300.9,52.1,302.4,48.5,305.5,45.5"></path> <path class="st0" d="M351.6,53.3c-0.3-1.7-1.1-3-2.4-4c-1.3-1-2.8-1.5-4.6-1.5c-1.5,0-2.9,0.5-4.2,1.5c-1.3,1-2.1,2.3-2.6,4H351.6 z M334.2,45.5c2.9-3,6.6-4.5,10.9-4.5c3.9,0,7.3,1.5,10,4.4c2.8,3,4.2,6.5,4.2,10.6L359,59h-21.1c1,3.8,3.7,5.6,8,5.6 c3,0,5.7-0.7,8-2l2.9,5.9c-3.4,2-7.1,3-11.1,3c-4.5,0-8.3-1.3-11.4-4c-3.1-2.7-4.7-6.4-4.7-11.2C329.8,52.1,331.2,48.5,334.2,45.5 "></path> <path class="st0" d="M80.3,13.1c0-2.9-2.4-5.3-5.3-5.3c-2.9,0-5.3,2.4-5.3,5.3v42.2L45.3,36.1c-2.3-1.8-5.6-1.4-7.4,0.9 c-1.8,2.3-1.4,5.6,0.9,7.4l27.4,21.5l-25,17.9L19.8,68.5c-2.4-1.7-5.7-1.2-7.4,1.2c-1.7,2.4-1.2,5.7,1.2,7.4l24.5,17.5 c0.9,0.7,2,1,3.1,1c1.1,0,2.2-0.3,3.1-1l33.8-24.2c0,0,0.1-0.1,0.1-0.1c0.2-0.1,0.3-0.3,0.5-0.4c0.1-0.1,0.3-0.3,0.4-0.4 c0,0,0.1-0.1,0.1-0.1c0.2-0.2,0.3-0.4,0.4-0.7c0-0.1,0.1-0.1,0.1-0.2c0.2-0.3,0.3-0.7,0.4-1.1c0-0.1,0-0.2,0.1-0.3 c0.1-0.3,0.1-0.6,0.1-0.9c0-0.1,0-0.1,0-0.2V13.1z"></path> <path class="st0" d="M12.7,16.6h41.4c2.9,0,5.3-2.4,5.3-5.3C59.4,8.4,57,6,54.1,6H7.4c-2.9,0-5.3,2.4-5.3,5.3v42.5 c0,2.9,2.4,5.3,5.3,5.3c2.9,0,5.3-2.4,5.3-5.3V16.6z"></path> </g> <g> <path class="st0" d="M359.9,40.5c0-2.9,2.4-5.3,5.3-5.3c2.9,0,5.3,2.4,5.3,5.3c0,2.9-2.4,5.3-5.3,5.3 C362.3,45.8,359.9,43.4,359.9,40.5z M369.6,40.5c0-2.4-2-4.4-4.4-4.4c-2.4,0-4.4,2-4.4,4.4c0,2.4,2,4.4,4.4,4.4 C367.6,44.9,369.6,42.9,369.6,40.5z M362.9,37.3h2.5c1.5,0,2.6,1.1,2.6,2.6c0,1-0.5,1.7-1.1,2.2l1.1,1.6h-1.1l-0.8-1.2 c-0.2,0-0.4,0-0.6,0h-1.6v1.2h-0.9V37.3z M365.4,41.6c1,0,1.6-0.7,1.6-1.7c0-0.9-0.7-1.7-1.6-1.7h-1.6v3.3H365.4z"></path> </g> </g> </svg> 